<svg width="100" height="54" viewBox="0 0 100 54" fill="none" xmlns="http://www.w3.org/2000/svg">
<g id="mir">
<path id="Combined-Shape" fill-rule="evenodd" clip-rule="evenodd" d="M10.1548 13.0046C10.1976 13.0044 10.2445 13.0036 10.2951 13.0027C11.2901 12.9858 13.7217 12.9444 14.7812 16.5197C15.5312 19.0505 16.726 23.1961 18.3654 28.9565H19.033C20.7912 22.8835 21.9989 18.7379 22.6562 16.5197C23.7139 12.9506 26.2632 12.9856 27.4994 13.0026C27.5781 13.0037 27.6514 13.0047 27.7188 13.0047L36.3984 13.0047V39.9999H27.5519V24.0912H26.9586L22.0271 39.9999H15.3713L10.4398 24.0794H9.84653V39.9999H1V13.0047L10.1548 13.0046ZM49.1018 13.0047V28.9253H49.8076L55.8063 15.8339C56.9707 13.2287 59.4526 13.0047 59.4526 13.0047H68.0134V40H58.9821V24.0794H58.2763L52.3952 37.1708C51.2308 39.7642 48.6313 40 48.6313 40H40.0705V13.0047H49.1018ZM89.6335 31.9585C94.0136 31.9585 97.9697 29.4023 99.2295 25.833H71.5742V40H80.1625V31.9585H89.6335Z" fill="#0F754E"/>
<path id="path24" d="M90.0479 13.0049H71.124C71.5744 19.015 76.751 24.16 82.1099 24.16H99.8264C100.849 19.1649 97.3293 13.0049 90.0479 13.0049Z" fill="url(#paint0_linear_0_4567)"/>
</g>
<defs>
<linearGradient id="paint0_linear_0_4567" x1="100" y1="14.4444" x2="71.124" y2="14.4444" gradientUnits="userSpaceOnUse">
<stop stop-color="#1F5CD7"/>
<stop offset="1" stop-color="#02AEFF"/>
</linearGradient>
</defs>
</svg>
