<svg width="100" height="54" viewBox="0 0 100 54" fill="none" xmlns="http://www.w3.org/2000/svg">
<g id="visa">
<path id="polygon9" d="M44.6661 39.6247H38.1855L42.239 14.4561H48.7192L44.6661 39.6247Z" fill="#00579F"/>
<path id="path11" d="M68.1596 15.0715C66.8814 14.5623 64.854 14 62.3471 14C55.9473 14 51.4407 17.427 51.413 22.3267C51.3599 25.9416 54.6397 27.9495 57.0927 29.1548C59.5999 30.3865 60.4522 31.1904 60.4522 32.2883C60.4267 33.9744 58.4262 34.7516 56.5604 34.7516C53.9731 34.7516 52.5867 34.3509 50.4799 33.4128L49.6266 33.0107L48.7197 38.6605C50.2397 39.3559 53.04 39.973 55.9473 40C62.7472 40 67.1741 36.626 67.2265 31.4046C67.2524 28.5395 65.5206 26.3441 61.7868 24.5502C59.5202 23.3986 58.1321 22.6221 58.1321 21.4438C58.1587 20.3726 59.3061 19.2754 61.8648 19.2754C63.9716 19.2217 65.5195 19.7302 66.6921 20.2391L67.2783 20.5064L68.1596 15.0715Z" fill="#00579F"/>
<path id="path13" fill-rule="evenodd" clip-rule="evenodd" d="M79.7593 14.4561H84.772L90.0002 39.6244H83.9998C83.9998 39.6244 83.4126 36.7326 83.2266 35.8489H74.9061C74.6654 36.518 73.5459 39.6244 73.5459 39.6244H66.7461L76.3721 16.5443C77.0391 14.9109 78.2135 14.4561 79.7593 14.4561ZM79.3599 23.6664C79.3599 23.6664 77.3063 29.2625 76.7726 30.7084H82.1592C81.8927 29.45 80.6655 23.4254 80.6655 23.4254L80.2126 21.2568C80.0218 21.8152 79.746 22.583 79.56 23.1008C79.4339 23.4519 79.349 23.6881 79.3599 23.6664Z" fill="#00579F"/>
<path id="path15" d="M32.7734 14.4561L26.4268 31.6187L25.7332 28.1379C24.5599 24.1215 20.88 19.7578 16.7734 17.5881L22.5867 39.598H29.4397L39.626 14.4561H32.7734V14.4561Z" fill="#00579F"/>
<path id="path17" d="M20.5333 14.4561H10.1067L10 14.9646C18.1334 17.0532 23.52 22.0877 25.7331 28.139L23.4665 16.5717C23.0933 14.9642 21.9465 14.5091 20.5333 14.4561Z" fill="#FAA61A"/>
</g>
</svg>
