<svg width="26" height="24" viewBox="0 0 26 24" fill="none" xmlns="http://www.w3.org/2000/svg">
<path d="M3.15306 0C1.24653 0 0 1.209 0 2.79807C0 4.35205 1.20939 5.59553 3.0799 5.59553H3.11608C5.05991 5.59553 6.26962 4.35205 6.26962 2.79807C6.23328 1.209 5.05991 0 3.15306 0Z" fill="#0964BB"/>
<path d="M0.329102 7.80664H5.9027V24.0001H0.329102V7.80664Z" fill="#0964BB"/>
<path d="M19.5835 7.42627C16.5768 7.42627 14.5606 10.1548 14.5606 10.1548V7.80633H8.98682V23.9998H14.5603V14.9568C14.5603 14.4726 14.5966 13.9893 14.7439 13.6431C15.1468 12.6764 16.0637 11.6749 17.6035 11.6749C19.6203 11.6749 20.427 13.1599 20.427 15.3368V23.9998H26.0001V14.7148C26.0001 9.74083 23.2502 7.42627 19.5835 7.42627Z" fill="#0964BB"/>
</svg>
