<svg width="45" height="45" viewBox="0 0 45 45" fill="none" xmlns="http://www.w3.org/2000/svg">
<circle cx="14.0625" cy="29.5312" r="5.625" stroke="#00AAB5" stroke-width="2" stroke-linecap="round" stroke-linejoin="round"/>
<path d="M5.625 39.375C7.61682 36.7192 10.7428 35.1562 14.0625 35.1562C17.3822 35.1562 20.5082 36.7192 22.5 39.375" stroke="#00AAB5" stroke-width="2" stroke-linecap="round" stroke-linejoin="round"/>
<circle cx="14.0625" cy="11.25" r="5.625" stroke="#00AAB5" stroke-width="2" stroke-linecap="round" stroke-linejoin="round"/>
<path d="M5.625 21.0938C7.61682 18.438 10.7428 16.875 14.0625 16.875C17.3822 16.875 20.5082 18.438 22.5 21.0938" stroke="#00AAB5" stroke-width="2" stroke-linecap="round" stroke-linejoin="round"/>
<circle cx="30.9375" cy="29.5312" r="5.625" stroke="#00AAB5" stroke-width="2" stroke-linecap="round" stroke-linejoin="round"/>
<path d="M22.5 39.375C24.4918 36.7192 27.6178 35.1562 30.9375 35.1562C34.2572 35.1562 37.3832 36.7192 39.375 39.375" stroke="#00AAB5" stroke-width="2" stroke-linecap="round" stroke-linejoin="round"/>
<circle cx="30.9375" cy="11.25" r="5.625" stroke="#00AAB5" stroke-width="2" stroke-linecap="round" stroke-linejoin="round"/>
<path d="M22.5 21.0938C24.4918 18.438 27.6178 16.875 30.9375 16.875C34.2572 16.875 37.3832 18.438 39.375 21.0938" stroke="#00AAB5" stroke-width="2" stroke-linecap="round" stroke-linejoin="round"/>
</svg>
