<svg width="50" height="50" viewBox="0 0 50 50" fill="none" xmlns="http://www.w3.org/2000/svg">
<g clip-path="url(#clip0_0_3489)">
<circle cx="25" cy="25" r="25" stroke="#00AAB5" stroke-width="0.5" stroke-dasharray="4"/>
<circle cx="25" cy="25" r="20" fill="#00AAB5"/>
<path d="M19.5542 30.2397C18.638 30.2362 17.8496 30.0107 17.1891 29.5632C16.5321 29.1158 16.0261 28.4677 15.671 27.619C15.3194 26.7702 15.1454 25.7493 15.149 24.5561C15.149 23.3665 15.3248 22.3526 15.6763 21.5146C16.0314 20.6765 16.5375 20.0391 17.1944 19.6023C17.8549 19.1619 18.6415 18.9418 19.5542 18.9418C20.4668 18.9418 21.2516 19.1619 21.9086 19.6023C22.5691 20.0426 23.0769 20.6818 23.432 21.5199C23.7871 22.3544 23.9629 23.3665 23.9593 24.5561C23.9593 25.7528 23.7818 26.7756 23.4267 27.6243C23.0751 28.473 22.5708 29.1211 21.9139 29.5685C21.2569 30.016 20.4703 30.2397 19.5542 30.2397ZM19.5542 28.3274C20.1792 28.3274 20.6781 28.0131 21.051 27.3846C21.4238 26.756 21.6085 25.8132 21.6049 24.5561C21.6049 23.7287 21.5197 23.0398 21.3493 22.4893C21.1824 21.9389 20.9444 21.5252 20.6355 21.2482C20.3301 20.9712 19.9696 20.8327 19.5542 20.8327C18.9327 20.8327 18.4355 21.1435 18.0627 21.7649C17.6898 22.3864 17.5016 23.3168 17.498 24.5561C17.498 25.3942 17.5815 26.0938 17.7484 26.6548C17.9189 27.2124 18.1586 27.6314 18.4675 27.9119C18.7765 28.1889 19.1387 28.3274 19.5542 28.3274ZM28.6363 30.1491C27.8408 30.1491 27.1324 30.0124 26.5109 29.739C25.893 29.462 25.4047 29.082 25.0461 28.5991C24.691 28.1126 24.5081 27.5515 24.4974 26.9158H26.8199C26.8341 27.1822 26.9211 27.4165 27.0809 27.619C27.2442 27.8178 27.4608 27.9723 27.7307 28.0824C28.0006 28.1925 28.3042 28.2475 28.6416 28.2475C28.9932 28.2475 29.3039 28.1854 29.5738 28.0611C29.8437 27.9368 30.055 27.7646 30.2077 27.5444C30.3604 27.3242 30.4367 27.0703 30.4367 26.7827C30.4367 26.4915 30.355 26.234 30.1917 26.0103C30.0319 25.783 29.801 25.6055 29.4992 25.4776C29.2009 25.3498 28.8458 25.2859 28.4339 25.2859H27.4165V23.592H28.4339C28.7819 23.592 29.089 23.5316 29.3554 23.4109C29.6253 23.2901 29.8348 23.1232 29.9839 22.9102C30.1331 22.6935 30.2077 22.4414 30.2077 22.1538C30.2077 21.8803 30.142 21.6406 30.0106 21.4347C29.8827 21.2251 29.7016 21.0618 29.4672 20.9446C29.2364 20.8274 28.9665 20.7688 28.6576 20.7688C28.3451 20.7688 28.0592 20.8256 27.8 20.9393C27.5407 21.0494 27.333 21.2074 27.1768 21.4134C27.0205 21.6193 26.9371 21.8608 26.9264 22.1378H24.7158C24.7265 21.5092 24.9058 20.9553 25.2538 20.4759C25.6018 19.9964 26.0706 19.6218 26.6601 19.3519C27.2531 19.0785 27.9225 18.9418 28.6682 18.9418C29.4211 18.9418 30.0798 19.0785 30.6444 19.3519C31.2091 19.6254 31.6476 19.9947 31.9601 20.4599C32.2762 20.9215 32.4324 21.44 32.4289 22.0153C32.4324 22.6261 32.2425 23.1357 31.8589 23.544C31.479 23.9524 30.9836 24.2116 30.3728 24.3217V24.407C31.1753 24.5099 31.7861 24.7887 32.2052 25.2433C32.6278 25.6942 32.8373 26.2589 32.8337 26.9371C32.8373 27.5586 32.6579 28.1108 32.2957 28.5938C31.9371 29.0767 31.4417 29.4567 30.8096 29.7337C30.1775 30.0107 29.453 30.1491 28.6363 30.1491Z" fill="white"/>
</g>
<defs>
<clipPath id="clip0_0_3489">
<rect width="50" height="50" fill="white"/>
</clipPath>
</defs>
</svg>
