<svg width="94" height="71" viewBox="0 0 94 71" fill="none" xmlns="http://www.w3.org/2000/svg">
<path fill-rule="evenodd" clip-rule="evenodd" d="M82.1597 71H11.8403C7.90692 71 4.95019 70.0395 2.97011 68.1184C0.990037 66.1974 0 63.342 0 59.5522V11.4478C0 7.65802 0.990037 4.8026 2.97011 2.88156C4.95019 0.960519 7.90692 0 11.8403 0H82.1597C86.0931 0 89.0498 0.967053 91.0299 2.90116C93.01 4.83527 94 7.68415 94 11.4478V59.5522C94 63.3158 93.01 66.1647 91.0299 68.0988C89.0498 70.0329 86.0931 71 82.1597 71ZM36.8454 51.4368C37.6482 51.7766 38.4777 51.6981 39.3339 51.2015L62.7336 37.5975C63.5095 37.1009 63.8975 36.4278 63.8975 35.5784C63.8975 34.729 63.5095 34.069 62.7336 33.5986L39.3339 19.9161C38.5312 19.4456 37.7151 19.3672 36.8856 19.6808C36.0561 19.9945 35.6413 20.5826 35.6413 21.4451V49.6334C35.6413 50.4959 36.0427 51.097 36.8454 51.4368Z" fill="white"/>
</svg>
