<svg width="40" height="40" viewBox="0 0 40 40" fill="none" xmlns="http://www.w3.org/2000/svg">
<g id="subscribe">
<g id="Group">
<path id="Path" d="M26.75 24.5V14C26.7525 13.4025 26.5163 12.8288 26.0938 12.4063C25.6713 11.9838 25.0975 11.7475 24.5 11.75H11.75" stroke="white" stroke-width="1.5" stroke-linecap="round" stroke-linejoin="round"/>
<path id="Path_2" d="M17.75 17.7531H23.75" stroke="white" stroke-width="1.5" stroke-linecap="round" stroke-linejoin="round"/>
<path id="Path_3" d="M17.75 20.7531H23.75" stroke="white" stroke-width="1.5" stroke-linecap="round" stroke-linejoin="round"/>
<path id="Path_4" d="M10.0719 15.5C9.40409 14.7523 9.31152 13.6529 9.84491 12.8041C10.3783 11.9552 11.4089 11.5617 12.3723 11.8389C13.3357 12.1162 13.9995 12.9974 14 14V26C14.0006 27.0025 14.6643 27.8837 15.6277 28.161C16.5911 28.4383 17.6218 28.0447 18.1551 27.1959C18.6885 26.347 18.596 25.2477 17.9281 24.5H28.4281C29.0198 25.1615 29.1673 26.1089 28.8048 26.919C28.4423 27.7291 27.6375 28.2504 26.75 28.25H16.25" stroke="white" stroke-width="1.5" stroke-linecap="round" stroke-linejoin="round"/>
</g>
</g>
</svg>
