<svg width="100" height="54" viewBox="0 0 100 54" fill="none" xmlns="http://www.w3.org/2000/svg">
<g id="qiwi">
<path id="path5491" fill-rule="evenodd" clip-rule="evenodd" d="M47.4449 0C34.4964 0 24 10.5514 24 23.57C24 36.5887 34.4954 47.1411 47.4449 47.1411C49.0405 47.1411 50.6287 47.0014 52.3724 46.8479C54.3904 46.6702 56.6169 46.4742 59.3045 46.4554C63.7689 46.4554 68.6761 48.0313 74.0599 52.8284C74.6054 53.3076 75.3203 52.691 74.8437 52.1086C69.5616 45.3597 64.6544 44.0925 59.7472 42.9958C53.7502 41.6594 50.6828 38.302 48.5358 34.5676C48.127 33.8137 47.9226 33.9511 47.8876 34.9105C47.849 36.3222 47.9519 37.7342 48.1948 39.1251H47.4798C38.9259 39.1251 31.9735 32.1355 31.9735 23.536C31.9735 14.9364 38.9259 7.94684 47.4788 7.94684C56.0327 7.94684 62.9851 14.9364 62.9851 23.536C62.9851 24.1525 62.9502 24.769 62.8824 25.3515C61.7236 25.146 59.5089 25.1119 57.9413 25.2493C57.362 25.3174 57.4297 25.5911 57.8735 25.6603C62.9851 26.6187 66.4952 29.8057 67.3129 35.5952C67.3468 35.7325 67.5173 35.7666 67.5862 35.6644C69.6643 32.1355 70.8908 27.9891 70.8908 23.57C70.8908 10.5525 60.3944 0 47.4449 0ZM65.847 35.6293C65.9837 36.692 65.6776 37.103 65.3365 37.103C64.9954 37.103 64.5178 36.692 64.0072 35.8699C63.4956 35.0468 63.2912 34.1225 63.5645 33.6423C63.734 33.3335 64.1089 33.1972 64.5527 33.3686C65.4382 33.7115 65.7792 35.0468 65.847 35.6293ZM61.0765 37.9591C62.1325 38.8504 62.4396 39.8779 61.8942 40.6318C61.587 41.0088 61.0765 41.2484 60.4971 41.2484C59.9177 41.2484 59.3045 41.0429 58.8956 40.6659C57.9413 39.8439 57.6691 38.4724 58.2813 37.7195C58.5207 37.4107 58.8956 37.2403 59.3723 37.2403C59.9177 37.2403 60.531 37.4799 61.0765 37.9591Z" fill="#FF8C00"/>
</g>
</svg>
