<svg width="100" height="54" viewBox="0 0 100 54" fill="none" xmlns="http://www.w3.org/2000/svg">
<g id="maestro">
<g id="Group">
<path id="Shape" fill-rule="evenodd" clip-rule="evenodd" d="M84.817 40.5097V41.254H84.669V40.5097H84.373V40.3608H85.113V40.5097H84.817ZM86.297 40.3608V41.254H86.186V40.5841L85.927 41.1796H85.742L85.483 40.5841V41.254H85.335V40.3608H85.557L85.816 40.9563L86.075 40.3608H86.297Z" fill="#00A2E5"/>
<path id="Path" d="M59.9897 45.0874H39.9727V8.9126H59.9897V45.0874Z" fill="#7375CF"/>
<path id="Path_2" d="M41.268 27C41.268 19.6683 44.672 13.1181 50 8.91262C46.115 5.82362 41.194 4 35.866 4C23.249 4 13 14.3091 13 27C13 39.6909 23.249 50 35.866 50C41.194 50 46.115 48.1764 50 45.0874C44.672 40.8819 41.268 34.3317 41.268 27Z" fill="#EB001B"/>
<path id="Path_3" d="M87 27C87 39.6909 76.751 50 64.134 50C58.806 50 53.885 48.1764 50 45.0874C55.328 40.8819 58.732 34.3317 58.732 27C58.732 19.6683 55.328 13.1181 50 8.91262C53.885 5.82362 58.806 4 64.134 4C76.751 4 87 14.3091 87 27Z" fill="#00A2E5"/>
</g>
</g>
</svg>
