<svg width="100" height="54" viewBox="0 0 100 54" fill="none" xmlns="http://www.w3.org/2000/svg">
<g id="wallet">
<path id="Path" fill-rule="evenodd" clip-rule="evenodd" d="M30.0006 26.7863C30.0006 23.7542 30.2544 21.8299 36.5233 17.1425C41.7133 13.2616 58.349 0 58.349 0V22.1379H71V54H33.952C31.7788 54 30 52.2182 30 50.0411L30.0006 26.7865V26.7863Z" fill="#FFCF01"/>
<path id="Path_2" fill-rule="evenodd" clip-rule="evenodd" d="M58.3488 22.1377V34.965L35.1016 50.829L64.4934 41.2496V22.1377H58.3488Z" fill="#D3AC06"/>
<path id="Path_3" fill-rule="evenodd" clip-rule="evenodd" d="M47.7258 21.4745C49.0854 19.8519 51.0708 19.2792 52.161 20.1954C53.2512 21.1119 53.0333 23.1703 51.6737 24.7929C50.3152 26.4153 48.3289 26.9874 47.2387 26.071C46.1485 25.1547 46.3671 23.0967 47.7258 21.4743V21.4745Z" fill="#231F20"/>
</g>
</svg>
