<svg width="100" height="54" viewBox="0 0 100 54" fill="none" xmlns="http://www.w3.org/2000/svg">
<g id="mastercard">
<g id="Group">
<rect id="rect19" x="39.958" y="8.91992" width="20.0256" height="36.1599" fill="#FF5A00"/>
<path id="XMLID_330_" d="M41.2906 27C41.2906 19.6534 44.727 13.133 50 8.92006C46.1193 5.8534 41.224 4 35.8843 4C23.235 4 13 14.2867 13 27C13 39.7133 23.235 50 35.8843 50C41.224 50 46.1193 48.1466 50 45.0799C44.7196 40.9265 41.2906 34.3466 41.2906 27Z" fill="#EB001B"/>
<path id="path22" d="M87 27C87 39.7133 76.765 50 64.1157 50C58.776 50 53.8807 48.1466 50 45.0799C55.3397 40.8596 58.7094 34.3466 58.7094 27C58.7094 19.6534 55.273 13.133 50 8.92006C53.8733 5.8534 58.7686 4 64.1083 4C76.765 4 87 14.3537 87 27Z" fill="#F79E1B"/>
</g>
</g>
</svg>
