<svg width="144" height="144" viewBox="0 0 144 144" fill="none" xmlns="http://www.w3.org/2000/svg">
<path d="M72 10.2475C63.8906 10.2475 55.8605 11.8448 48.3684 14.9481C40.8762 18.0515 34.0687 22.6001 28.3344 28.3344C22.6002 34.0686 18.0515 40.8762 14.9482 48.3683C11.8448 55.8605 10.2476 63.8905 10.2476 72C10.2476 80.1094 11.8448 88.1395 14.9482 95.6316C18.0515 103.124 22.6002 109.931 28.3344 115.666C34.0687 121.4 40.8762 125.948 48.3684 129.052C55.8606 132.155 63.8906 133.752 72 133.752C80.1095 133.752 88.1395 132.155 95.6317 129.052C103.124 125.948 109.931 121.4 115.666 115.666C121.4 109.931 125.949 103.124 129.052 95.6316C132.155 88.1394 133.753 80.1094 133.753 71.9999C133.753 63.8905 132.155 55.8605 129.052 48.3683C125.949 40.8761 121.4 34.0686 115.666 28.3344C109.931 22.6001 103.124 18.0515 95.6317 14.9481C88.1395 11.8448 80.1095 10.2475 72 10.2475L72 10.2475Z" stroke="white" stroke-width="20" stroke-linecap="round" stroke-linejoin="round"/>
</svg>
