<svg width="22" height="24" viewBox="0 0 22 24" fill="none" xmlns="http://www.w3.org/2000/svg">
<path d="M21 3.99998H18.9999H15.9999V0.999984C16 0.447984 15.553 0 15 0H6.99998C6.447 0 6 0.447984 6 0.999984V3.99998H3H0.999984C0.447 3.99998 0 4.44797 0 4.99997C0 5.55197 0.446953 6 0.999984 6H1.99997V21C1.99997 22.654 3.34598 24 4.99997 24H17C18.654 24 20 22.654 20 21V6H21C21.5529 6 21.9999 5.55202 21.9999 5.00002C21.9999 4.44802 21.553 3.99998 21 3.99998ZM7.99997 2.00002H14V4.00003H7.99997V2.00002ZM18 21C18 21.551 17.552 22 17 22H4.99997C4.44797 22 3.99998 21.551 3.99998 21V6H6.99998H15H18V21H18Z" fill="#192122"/>
<path d="M7.99998 8C7.447 8 7 8.44798 7 8.99998V18C7 18.552 7.447 19 7.99998 19C8.55297 19 8.99997 18.552 8.99997 18V8.99998C8.99997 8.44798 8.55297 8 7.99998 8Z" fill="#192122"/>
<path d="M14 8C13.447 8 13 8.44798 13 8.99998V18C13 18.552 13.447 19 14 19C14.553 19 15 18.552 15 18V8.99998C15 8.44798 14.553 8 14 8Z" fill="#192122"/>
</svg>
