<svg width="30" height="30" viewBox="0 0 30 30" fill="none" xmlns="http://www.w3.org/2000/svg">
<g id="icon_edit_outline">
<rect id="Rectangle" width="30" height="30" fill="#D8D8D8" fill-opacity="0.01"/>
<g id="edit">
<path id="Path" d="M16.5811 9.76233L7.1538 19.1788C7.10637 19.2263 7.07212 19.2863 7.05581 19.3507L6.01088 23.5397C5.97963 23.6658 6.01673 23.7999 6.10887 23.8919C6.17858 23.9616 6.27358 24.0001 6.37074 24.0001C6.40051 24.0001 6.43095 23.9964 6.46057 23.989L10.6547 22.9452C10.7201 22.9289 10.7794 22.8948 10.8269 22.8475L20.255 13.4317L16.5811 9.76233Z" stroke="#192122" stroke-width="1.7"/>
<path id="Path_2" d="M23.4568 7.57326L22.4074 6.52513C21.706 5.82462 20.4836 5.8253 19.783 6.52513L18.4976 7.80902L22.1713 11.4783L23.4568 10.1944C23.8071 9.8446 24.0001 9.37904 24.0001 8.88389C24.0001 8.38874 23.8071 7.92317 23.4568 7.57326Z" stroke="#192122" stroke-width="1.7"/>
</g>
</g>
</svg>
