<svg width="135" height="48" viewBox="0 0 135 48" fill="none" xmlns="http://www.w3.org/2000/svg">
<g id="logo_white">
<g id="Group 5">
<g id="Frame" clip-path="url(#clip0_1_122)">
<g id="Page-1">
<g id="evazaym-logo">
<g id="Group-5">
<path id="Combined-Shape" fill-rule="evenodd" clip-rule="evenodd" d="M3.2783 34.1696C4.63712 35.2485 6.7637 36.6337 9.65805 38.3251C15.2515 41.5938 21.0203 43.7928 26.9645 44.922C29.1284 45.5933 31.4273 45.9546 33.8099 45.9546L33.9459 45.9532L32.6466 46.7273C28.0288 46.2413 18.4293 44.3543 13.1763 42.4501C8.11518 40.6155 4.42962 38.6613 0.597909 36.1118C0.489297 36.0396 0.375399 35.9669 0.288742 35.8925C-0.208276 35.4658 -0.046338 35.1118 0.641392 35.0799L0.723072 35.0776L3.2783 34.1696ZM6.17168 17.6382L6.2659 17.6427L11.0374 18.0183C10.7463 19.4961 10.5936 21.024 10.5936 22.5878C10.5936 32.3902 16.5906 40.7828 25.0933 44.2518L24.9104 44.3968C19.3886 43.1337 14.3605 40.8075 9.82596 37.4183L9.44922 37.1334C5.42138 34.0517 2.34004 30.6319 0.205204 26.874C0.146962 26.7724 0.100788 26.6644 0.0672057 26.5522C-0.169135 25.7628 0.253123 24.9325 1.01575 24.6522L1.10524 24.6224L3.28937 23.9699C4.61997 27.2988 6.25824 30.2251 8.2042 32.7488C10.3936 35.5882 12.9997 37.7768 16.0225 39.3146L15.7789 39.1434C13.2781 37.366 11.1739 35.0921 9.46633 32.3217C7.2346 28.701 5.62164 24.4254 4.62746 19.4951C4.59929 19.3541 4.59055 19.2098 4.60179 19.0665C4.66373 18.2764 5.30707 17.6714 6.07852 17.6393L6.17168 17.6382Z" fill="white"/>
</g>
</g>
</g>
</g>
<path id="Combined Shape" fill-rule="evenodd" clip-rule="evenodd" d="M34.5835 46.7335C47.4055 46.7335 57.7998 36.2719 57.7998 23.3668C57.7998 10.4617 47.4055 0 34.5835 0C21.7615 0 11.3672 10.4617 11.3672 23.3668C11.3672 36.2719 21.7615 46.7335 34.5835 46.7335ZM44.3534 29.0599C44.8388 29.2736 45.0815 29.6705 45.0815 30.2506C45.0815 30.617 44.9753 31.075 44.763 31.6246C44.1866 33.0596 43.1476 34.1741 41.6459 34.9679C40.1443 35.7618 38.3469 36.1587 36.2537 36.1587C32.7651 36.1587 30.0121 35.0748 27.9948 32.907C25.9774 30.7392 24.9688 27.6859 24.9688 23.7472C24.9688 19.8696 25.9547 16.8316 27.9265 14.6332C29.8983 12.4349 32.7196 11.3357 36.3902 11.3357C39.0295 11.3357 41.1909 11.9311 42.8746 13.1219C44.5582 14.3126 45.4 16.0072 45.4 18.2055C45.4 20.4344 44.4975 22.1519 42.6925 23.3579C40.8875 24.564 38.4683 25.167 35.4347 25.167C33.7055 25.167 32.1735 25.0906 30.8388 24.938C31.0511 27.7164 31.7488 29.7087 32.9319 30.9147C34.115 32.1208 35.7228 32.7238 37.7554 32.7238C39.3632 32.7238 40.7434 32.3879 41.8962 31.7162C43.049 31.0445 43.8681 30.159 44.3534 29.0599ZM36.163 13.3048C34.4642 13.3048 33.137 14.1597 32.1814 15.8695C31.2258 17.5794 30.748 19.9609 30.748 23.0142C31.5975 23.0752 32.2648 23.1058 32.7502 23.1058C34.7524 23.1058 36.3905 22.7088 37.6646 21.915C38.9388 21.1211 39.5758 19.5945 39.5758 17.3351C39.5758 14.6482 38.4382 13.3048 36.163 13.3048Z" fill="white"/>
</g>
<g id="eva zaym">
<path id="Shape" fill-rule="evenodd" clip-rule="evenodd" d="M77.3017 18.4051C77.3017 18.0302 77.1449 17.7737 76.8312 17.6355C76.5175 18.3459 75.9882 18.9181 75.2432 19.3522C74.4982 19.7863 73.6062 20.0034 72.5672 20.0034C71.2536 20.0034 70.2146 19.6137 69.45 18.8342C68.6854 18.0548 68.2345 16.7673 68.0973 14.9717C68.9599 15.0704 69.9499 15.1197 71.0674 15.1197C73.0279 15.1197 74.5914 14.73 75.7579 13.9506C76.9243 13.1712 77.5076 12.0613 77.5076 10.6208C77.5076 9.20014 76.9636 8.10501 75.8755 7.33547C74.7874 6.56592 73.3906 6.18115 71.6849 6.18115C69.3128 6.18115 67.4895 6.8915 66.2152 8.3122C64.9409 9.7329 64.3037 11.6962 64.3037 14.2022C64.3037 16.7476 64.9556 18.7208 66.2593 20.1218C67.563 21.5227 69.3422 22.2232 71.5967 22.2232C72.9495 22.2232 74.111 21.9667 75.0815 21.4537C76.0519 20.9406 76.7234 20.2204 77.0959 19.293C77.2331 18.9378 77.3017 18.6419 77.3017 18.4051ZM68.9644 9.11131C69.582 8.00632 70.4397 7.45383 71.5376 7.45383C73.0079 7.45383 73.7431 8.32203 73.7431 10.0584C73.7431 11.5186 73.3314 12.5052 72.508 13.0182C71.6846 13.5313 70.6259 13.7878 69.332 13.7878C69.0183 13.7878 68.587 13.768 68.0381 13.7286C68.0381 11.7554 68.3469 10.2163 68.9644 9.11131Z" fill="white"/>
<path id="Path" d="M91.0655 6.27002C91.732 6.27002 92.2173 6.39334 92.5211 6.63999C92.825 6.88664 92.9769 7.26648 92.9769 7.77951C92.9769 8.41093 92.8593 9.03249 92.6241 9.64418L88.0659 21.6905C87.2817 22.0457 86.4975 22.2233 85.7133 22.2233C84.7135 22.2233 84.0959 21.8286 83.8607 21.0394L79.6848 8.81544C79.6652 8.77597 79.5819 8.54412 79.4349 8.11989C79.2878 7.69565 79.0869 7.34541 78.832 7.06916C79.3222 6.5364 79.9887 6.27002 80.8317 6.27002C81.3807 6.27002 81.8365 6.38841 82.1992 6.62519C82.5619 6.86198 82.7922 7.20729 82.8902 7.66112L86.3309 20.033L89.3304 8.75624C89.4481 8.20375 89.5069 7.79924 89.5069 7.54273C89.5069 7.14809 89.4285 6.85211 89.2716 6.65479C89.8598 6.39828 90.4577 6.27002 91.0655 6.27002Z" fill="white"/>
<path id="Shape_2" fill-rule="evenodd" clip-rule="evenodd" d="M109.739 20.181C109.739 19.7863 109.611 19.4015 109.356 19.0266C109.258 19.1845 109.131 19.2979 108.974 19.367C108.817 19.4361 108.67 19.4706 108.533 19.4706C107.866 19.4706 107.533 18.9477 107.533 17.9019V12.6039C107.533 10.3545 107.033 8.72164 106.033 7.70544C105.034 6.68925 103.455 6.18115 101.299 6.18115C99.4168 6.18115 97.9317 6.49686 96.8436 7.12828C95.7556 7.75971 95.2115 8.65751 95.2115 9.82169C95.2115 10.5912 95.4615 11.2325 95.9614 11.7456C96.4613 12.2586 97.123 12.5151 97.9464 12.5151C98.3385 12.5151 98.7061 12.4608 99.0492 12.3523C99.3923 12.2438 99.6618 12.081 99.8579 11.8639C99.4658 11.6666 99.1864 11.3706 99.0198 10.976C98.8531 10.5814 98.7698 10.1571 98.7698 9.7033C98.7698 8.91402 98.9855 8.33687 99.4168 7.97182C99.8481 7.60678 100.407 7.42426 101.093 7.42426C102.112 7.42426 102.843 7.82877 103.284 8.63778C103.725 9.44679 103.945 10.6899 103.945 12.3671V13.1367C102.358 13.1367 100.907 13.3241 99.5932 13.699C98.1228 14.1134 96.9122 14.7251 95.9614 15.5341C95.0106 16.3431 94.5352 17.379 94.5352 18.6419C94.5352 19.7271 94.8831 20.5756 95.5791 21.1873C96.2751 21.799 97.1916 22.1048 98.3287 22.1048C99.6422 22.1048 100.799 21.7348 101.799 20.9949C102.799 20.2549 103.583 19.2634 104.151 18.0203C104.21 19.4607 104.494 20.5016 105.004 21.1429C105.514 21.7842 106.239 22.1048 107.18 22.1048C107.945 22.1048 108.562 21.9223 109.033 21.5573C109.503 21.1922 109.739 20.7334 109.739 20.181ZM101.798 19.0565C101.151 19.5498 100.524 19.7964 99.916 19.7964C99.3867 19.7964 98.9946 19.609 98.7397 19.2341C98.4849 18.8592 98.3574 18.3856 98.3574 17.8134C98.3574 17.1819 98.5339 16.6196 98.8868 16.1263C99.2396 15.633 99.72 15.2383 100.328 14.9424C101.249 14.4885 102.494 14.2814 104.062 14.3208C104.062 15.3074 103.847 16.22 103.415 17.0586C102.984 17.8972 102.445 18.5632 101.798 19.0565Z" fill="white"/>
<path id="Path_2" d="M75.8325 36.1312C76.3814 36.368 76.798 36.738 77.0823 37.2412C77.3666 37.7443 77.5087 38.2228 77.5087 38.6767C77.5087 39.4857 77.1509 40.1516 76.4353 40.6745C75.7198 41.1974 74.7346 41.449 73.4799 41.4293L67.3044 41.2813C66.1673 41.2418 65.2655 41.3405 64.5989 41.5772L64.1578 40.8077C64.1578 40.2552 64.2117 39.8112 64.3195 39.4758C64.4273 39.1404 64.6381 38.8049 64.9518 38.4695L73.5681 28.4654L68.6865 28.8502C68.2748 28.8699 67.9121 28.9685 67.5984 29.1461C67.2848 29.3237 67.0397 29.5309 66.8633 29.7677C66.628 30.0834 66.5104 30.409 66.5104 30.7444C66.5104 30.8233 66.53 30.9417 66.5692 31.0996C66.1575 31.0601 65.8536 30.9911 65.6576 30.8924C65.1282 30.6556 64.7214 30.3103 64.4371 29.8565C64.1529 29.4026 64.0107 28.9685 64.0107 28.5542C64.0107 27.7254 64.3587 27.0595 65.0547 26.5563C65.7507 26.0532 66.8044 25.8213 68.216 25.8608L73.5681 26.0384C74.7836 26.0778 75.6854 25.989 76.2736 25.772L76.6559 26.6599C76.6559 27.2124 76.6069 27.6564 76.5088 27.9918C76.4108 28.3273 76.1952 28.6923 75.8619 29.0869L67.9219 38.4991L72.7447 38.3215C73.2544 38.3017 73.6808 38.1883 74.0239 37.9811C74.367 37.7739 74.617 37.5223 74.7738 37.2264C74.9307 36.9501 75.0091 36.6739 75.0091 36.3976C75.0091 36.22 74.9797 36.0622 74.9209 35.924C75.3129 35.9832 75.6168 36.0523 75.8325 36.1312Z" fill="white"/>
<path id="Shape_3" fill-rule="evenodd" clip-rule="evenodd" d="M94.271 39.6536C94.271 39.259 94.1435 38.8742 93.8887 38.4993C93.7906 38.6571 93.6632 38.7706 93.5064 38.8397C93.3495 38.9087 93.2025 38.9433 93.0653 38.9433C92.3987 38.9433 92.0654 38.4204 92.0654 37.3746V32.0766C92.0654 29.8271 91.5655 28.1943 90.5656 27.1781C89.5658 26.1619 87.9876 25.6538 85.8311 25.6538C83.949 25.6538 82.4639 25.9695 81.3759 26.6009C80.2878 27.2324 79.7438 28.1302 79.7438 29.2943C79.7438 30.0639 79.9937 30.7052 80.4936 31.2182C80.9936 31.7312 81.6552 31.9878 82.4786 31.9878C82.8707 31.9878 83.2383 31.9335 83.5814 31.825C83.9245 31.7164 84.1941 31.5537 84.3901 31.3366C83.998 31.1393 83.7186 30.8433 83.552 30.4487C83.3854 30.054 83.302 29.6298 83.302 29.176C83.302 28.3867 83.5177 27.8095 83.949 27.4445C84.3803 27.0794 84.939 26.8969 85.6252 26.8969C86.6447 26.8969 87.3749 27.3014 87.8161 28.1104C88.2572 28.9194 88.4777 30.1626 88.4777 31.8398V32.6093C86.8897 32.6093 85.439 32.7968 84.1254 33.1717C82.6551 33.586 81.4445 34.1977 80.4936 35.0067C79.5428 35.8158 79.0674 36.8517 79.0674 38.1145C79.0674 39.1998 79.4154 40.0482 80.1113 40.6599C80.8073 41.2716 81.7238 41.5775 82.8609 41.5775C84.1745 41.5775 85.3311 41.2075 86.331 40.4676C87.3308 39.7276 88.115 38.7361 88.6836 37.493C88.7424 38.9334 89.0267 39.9743 89.5364 40.6155C90.0461 41.2568 90.7715 41.5775 91.7125 41.5775C92.4771 41.5775 93.0947 41.395 93.5652 41.0299C94.0357 40.6649 94.271 40.2061 94.271 39.6536ZM86.3303 38.5285C85.6833 39.0218 85.056 39.2685 84.4482 39.2685C83.9189 39.2685 83.5268 39.081 83.2719 38.7061C83.0171 38.3312 82.8896 37.8577 82.8896 37.2854C82.8896 36.654 83.0661 36.0916 83.419 35.5983C83.7719 35.105 84.2522 34.7104 84.8599 34.4144C85.7814 33.9606 87.0263 33.7534 88.5947 33.7929C88.5947 34.7795 88.379 35.6921 87.9477 36.5307C87.5164 37.3693 86.9773 38.0352 86.3303 38.5285Z" fill="white"/>
<path id="Path_3" d="M109.063 39.7424C109.063 42.6627 108.401 44.7691 107.078 46.0616C105.754 47.354 103.936 48.0002 101.623 48.0002C100.035 48.0002 98.7309 47.7585 97.7115 47.2751C96.692 46.7916 96.1823 45.9876 96.1823 44.8628C96.1823 44.2511 96.4078 43.748 96.8587 43.3533C97.3096 42.9587 97.8977 42.7614 98.6231 42.7614C99.3877 42.7614 99.917 42.9587 100.211 43.3533C99.9562 43.5309 99.7602 43.7578 99.623 44.0341C99.4857 44.3103 99.4171 44.5767 99.4171 44.8332C99.4171 45.4449 99.623 45.9333 100.035 46.2983C100.446 46.6634 100.995 46.8459 101.681 46.8459C103.034 46.8459 104.059 46.2638 104.755 45.0996C105.451 43.9354 105.798 42.2977 105.798 40.1864C105.798 39.6339 105.867 38.8446 106.004 37.8185C105.161 40.285 103.515 41.5183 101.064 41.5183C99.5347 41.5183 98.3977 41.0496 97.6527 40.1124C96.9077 39.1751 96.5254 37.6311 96.5058 35.4803V30.0935C96.5058 28.6136 96.3391 27.3902 96.0059 26.4234C96.594 25.9103 97.2606 25.6538 98.0056 25.6538C98.5937 25.6538 99.074 25.8215 99.4465 26.157C99.819 26.4924 100.005 26.9462 100.005 27.5185V34.9475C100.005 36.6445 100.162 37.8777 100.476 38.6473C100.789 39.4168 101.368 39.8016 102.211 39.8016C103.211 39.8016 104.024 39.2244 104.652 38.0701C105.279 36.9158 105.593 35.2238 105.593 32.9941C105.593 30.7841 105.563 29.3091 105.504 28.5692C105.446 27.8293 105.289 27.114 105.034 26.4234C105.602 25.9103 106.269 25.6538 107.034 25.6538C107.602 25.6538 108.078 25.8363 108.46 26.2014C108.842 26.5664 109.033 27.0548 109.033 27.6665L109.063 39.7424Z" fill="white"/>
<path id="Path_4" d="M134.471 37.2562C134.471 38.7558 134.647 39.9693 135 40.8967C134.392 41.4295 133.726 41.6959 133 41.6959C132.412 41.6959 131.932 41.5281 131.559 41.1927C131.187 40.8573 131.001 40.4034 131.001 39.8312L130.971 32.1949C130.971 30.5967 130.834 29.3881 130.559 28.5692C130.285 27.7503 129.726 27.3409 128.883 27.3409C128.334 27.3409 127.815 27.5925 127.325 28.0956C126.834 28.5988 126.433 29.3585 126.119 30.3747C125.805 31.3909 125.639 32.629 125.619 34.0892V37.2562C125.619 38.7558 125.795 39.9693 126.148 40.8967C125.541 41.4295 124.884 41.6959 124.178 41.6959C123.629 41.6959 123.168 41.5281 122.796 41.1927C122.423 40.8573 122.237 40.4034 122.237 39.8312V32.1949C122.237 30.5375 122.075 29.3141 121.752 28.5248C121.428 27.7355 120.845 27.3409 120.002 27.3409C119.1 27.3409 118.355 27.9328 117.767 29.1168C117.179 30.3007 116.885 32.047 116.885 34.3556C116.885 36.5656 116.914 38.0405 116.973 38.7805C117.032 39.5204 117.199 40.2357 117.473 40.9263C117.199 41.1434 116.914 41.3259 116.62 41.4739C116.326 41.6219 115.944 41.6959 115.473 41.6959C114.885 41.6959 114.405 41.5133 114.033 41.1483C113.66 40.7833 113.474 40.2949 113.474 39.6832L113.444 29.8863C113.444 28.8405 113.14 28.3176 112.533 28.3176C112.376 28.3176 112.219 28.3571 112.062 28.436C111.905 28.5149 111.788 28.6333 111.709 28.7912C111.474 28.4557 111.356 28.071 111.356 27.6369C111.356 27.0449 111.557 26.5713 111.959 26.2162C112.361 25.861 112.905 25.6834 113.591 25.6834C114.474 25.6834 115.165 25.9843 115.665 26.5861C116.165 27.188 116.434 28.0907 116.473 29.2943C116.846 28.1499 117.424 27.257 118.208 26.6157C118.993 25.9745 119.973 25.6538 121.149 25.6538C122.325 25.6538 123.252 25.9449 123.928 26.5269C124.604 27.109 125.08 27.992 125.354 29.176C125.727 28.071 126.31 27.2077 127.104 26.5861C127.898 25.9646 128.864 25.6538 130.001 25.6538C132.981 25.6538 134.471 27.6566 134.471 31.6622V37.2562Z" fill="white"/>
</g>
<ellipse id="Oval" cx="116.227" cy="19.0831" rx="2.70857" ry="2.72612" fill="white"/>
</g>
<defs>
<clipPath id="clip0_1_122">
<rect width="34.1633" height="29.7931" fill="white" transform="translate(0 17.1035)"/>
</clipPath>
</defs>
</svg>
