<svg width="256" height="91" viewBox="0 0 256 91" fill="none" xmlns="http://www.w3.org/2000/svg">
<g id="logo_white">
<g id="Group 5">
<g id="Frame" clip-path="url(#clip0_1_1149)">
<g id="Page-1">
<g id="evazaym-logo">
<g id="Group-5">
<path id="Combined-Shape" fill-rule="evenodd" clip-rule="evenodd" d="M6.21664 64.7798C8.79336 66.8253 12.826 69.4513 18.3145 72.658C28.9213 78.8549 39.8607 83.0238 51.1326 85.1646C55.2362 86.4373 59.5954 87.1222 64.1137 87.1222L64.3715 87.1196L61.9076 88.5872C53.1509 87.6658 34.9474 84.0883 24.9861 80.4783C15.3888 77.0002 8.39988 73.2953 1.13381 68.462C0.927852 68.325 0.711868 68.1872 0.547541 68.0462C-0.394954 67.2373 -0.0878705 66.5661 1.21627 66.5056L1.37116 66.5013L6.21664 64.7798ZM11.7033 33.4391L11.882 33.4477L20.9301 34.1596C20.3781 36.9613 20.0887 39.858 20.0887 42.8227C20.0887 61.4064 31.4608 77.3173 47.5845 83.894L47.2375 84.1689C36.7666 81.7743 27.2318 77.3643 18.6329 70.9388L17.9185 70.3987C10.2805 64.5564 4.43741 58.073 0.389127 50.9486C0.278683 50.7561 0.191124 50.5513 0.127442 50.3386C-0.320731 48.8419 0.479996 47.2679 1.92617 46.7366L2.09587 46.68L6.23763 45.4429C8.76083 51.754 11.8675 57.3018 15.5576 62.0863C19.7093 67.4693 24.6513 71.6185 30.3835 74.5339L29.9214 74.2094C25.1792 70.8396 21.189 66.5287 17.951 61.2766C13.7189 54.4122 10.6603 46.3065 8.77504 36.9594C8.72163 36.6921 8.70504 36.4186 8.72636 36.1468C8.84381 34.649 10.0638 33.5021 11.5267 33.4411L11.7033 33.4391Z" fill="white"/>
</g>
</g>
</g>
</g>
<path id="Combined Shape" fill-rule="evenodd" clip-rule="evenodd" d="M65.5807 88.5989C89.895 88.5989 109.606 68.7654 109.606 44.2995C109.606 19.8335 89.895 0 65.5807 0C41.2663 0 21.5557 19.8335 21.5557 44.2995C21.5557 68.7654 41.2663 88.5989 65.5807 88.5989ZM84.1072 55.0927C85.0276 55.4979 85.4878 56.2504 85.4878 57.3502C85.4878 58.0448 85.2865 58.9131 84.8838 59.955C83.7908 62.6756 81.8206 64.7883 78.973 66.2934C76.1255 67.7983 72.7171 68.5508 68.7478 68.5508C62.1323 68.5508 56.9118 66.4959 53.0863 62.3861C49.2608 58.2763 47.3481 52.4879 47.3481 45.0207C47.3481 37.6694 49.2177 31.9099 52.9569 27.7422C56.6961 23.5745 62.046 21.4906 69.0066 21.4906C74.0114 21.4906 78.1101 22.6194 81.3028 24.8769C84.4955 27.1344 86.0919 30.347 86.0919 34.5147C86.0919 38.7403 84.3805 41.9963 80.9577 44.2827C77.5349 46.5692 72.9472 47.7124 67.1946 47.7124C63.9156 47.7124 61.0105 47.5677 58.4794 47.2782C58.8821 52.5457 60.2052 56.3227 62.4487 58.6092C64.6922 60.8956 67.7411 62.0388 71.5953 62.0388C74.6442 62.0388 77.2616 61.4021 79.4476 60.1286C81.6336 58.8552 83.1868 57.1765 84.1072 55.0927ZM68.5761 25.2237C65.3546 25.2237 62.8379 26.8445 61.0258 30.086C59.2137 33.3276 58.3077 37.8426 58.3077 43.631C59.9184 43.7468 61.184 43.8047 62.1044 43.8047C65.9011 43.8047 69.0075 43.0522 71.4236 41.5472C73.8397 40.0422 75.0478 37.1479 75.0478 32.8645C75.0478 27.7706 72.8905 25.2237 68.5761 25.2237Z" fill="white"/>
</g>
<g id="eva zaym">
<path id="Shape" fill-rule="evenodd" clip-rule="evenodd" d="M146.587 34.8934C146.587 34.1827 146.289 33.6964 145.694 33.4345C145.1 34.7812 144.096 35.866 142.683 36.689C141.27 37.512 139.579 37.9235 137.608 37.9235C135.118 37.9235 133.147 37.1847 131.697 35.7071C130.247 34.2294 129.392 31.7885 129.132 28.3844C130.768 28.5714 132.645 28.6649 134.764 28.6649C138.482 28.6649 141.447 27.9261 143.659 26.4485C145.871 24.9708 146.977 22.8666 146.977 20.1358C146.977 17.4424 145.945 15.3662 143.882 13.9073C141.819 12.4484 139.17 11.7189 135.935 11.7189C131.437 11.7189 127.98 13.0656 125.563 15.759C123.147 18.4524 121.938 22.1746 121.938 26.9254C121.938 31.7511 123.175 35.492 125.647 38.148C128.119 40.804 131.493 42.132 135.768 42.132C138.333 42.132 140.536 41.6456 142.376 40.673C144.217 39.7004 145.49 38.335 146.196 36.5768C146.456 35.9035 146.587 35.3423 146.587 34.8934ZM130.777 17.274C131.948 15.1791 133.574 14.1317 135.656 14.1317C138.445 14.1317 139.839 15.7776 139.839 19.0696C139.839 21.8378 139.058 23.7082 137.497 24.6809C135.935 25.6535 133.928 26.1398 131.474 26.1398C130.879 26.1398 130.061 26.1024 129.02 26.0276C129.02 22.2867 129.606 19.3689 130.777 17.274Z" fill="white"/>
<path id="Path" d="M172.687 11.8873C173.951 11.8873 174.871 12.1211 175.447 12.5888C176.023 13.0564 176.311 13.7765 176.311 14.7491C176.311 15.9462 176.088 17.1245 175.642 18.2842L166.998 41.122C165.511 41.7954 164.024 42.1321 162.537 42.1321C160.641 42.1321 159.47 41.3839 159.024 39.8876L151.105 16.713C151.068 16.6382 150.91 16.1987 150.631 15.3944C150.353 14.5901 149.972 13.9261 149.488 13.4024C150.418 12.3924 151.682 11.8873 153.28 11.8873C154.321 11.8873 155.186 12.1118 155.873 12.5607C156.561 13.0096 156.998 13.6642 157.184 14.5246L163.708 37.9797L169.396 16.6008C169.619 15.5534 169.731 14.7865 169.731 14.3002C169.731 13.552 169.582 12.9909 169.285 12.6168C170.4 12.1305 171.534 11.8873 172.687 11.8873Z" fill="white"/>
<path id="Shape_2" fill-rule="evenodd" clip-rule="evenodd" d="M208.097 38.26C208.097 37.5118 207.855 36.7824 207.372 36.0716C207.186 36.3709 206.945 36.586 206.647 36.7169C206.35 36.8478 206.071 36.9133 205.811 36.9133C204.547 36.9133 203.915 35.922 203.915 33.9393V23.8952C203.915 19.6306 202.967 16.5351 201.071 14.6085C199.175 12.682 196.182 11.7187 192.093 11.7187C188.524 11.7187 185.707 12.3173 183.644 13.5143C181.581 14.7114 180.549 16.4135 180.549 18.6206C180.549 20.0795 181.023 21.2953 181.971 22.2679C182.919 23.2405 184.174 23.7268 185.735 23.7268C186.479 23.7268 187.176 23.624 187.827 23.4182C188.477 23.2125 188.988 22.9038 189.36 22.4924C188.617 22.1183 188.087 21.5571 187.771 20.809C187.455 20.0608 187.297 19.2565 187.297 18.3961C187.297 16.8998 187.706 15.8056 188.524 15.1135C189.341 14.4215 190.401 14.0755 191.702 14.0755C193.635 14.0755 195.02 14.8423 195.857 16.3761C196.693 17.9098 197.111 20.2665 197.111 23.4463V24.9052C194.1 24.9052 191.349 25.2606 188.858 25.9713C186.07 26.7569 183.774 27.9166 181.971 29.4503C180.168 30.9841 179.267 32.948 179.267 35.3422C179.267 37.3996 179.926 39.0082 181.246 40.1678C182.566 41.3275 184.304 41.9073 186.46 41.9073C188.951 41.9073 191.145 41.2059 193.041 39.8031C194.937 38.4003 196.424 36.5205 197.502 34.1638C197.613 36.8946 198.152 38.8679 199.119 40.0837C200.086 41.2994 201.461 41.9073 203.246 41.9073C204.695 41.9073 205.867 41.5613 206.759 40.8692C207.651 40.1772 208.097 39.3074 208.097 38.26ZM193.039 36.1282C191.812 37.0634 190.622 37.531 189.47 37.531C188.466 37.531 187.723 37.1756 187.239 36.4649C186.756 35.7541 186.514 34.8563 186.514 33.7715C186.514 32.5744 186.849 31.5083 187.518 30.573C188.187 29.6378 189.098 28.8897 190.251 28.3285C191.998 27.4681 194.359 27.0754 197.333 27.1502C197.333 29.0206 196.924 30.7507 196.106 32.3406C195.288 33.9304 194.266 35.193 193.039 36.1282Z" fill="white"/>
<path id="Path_2" d="M143.8 68.4991C144.841 68.948 145.631 69.6494 146.17 70.6033C146.709 71.5573 146.979 72.4644 146.979 73.3248C146.979 74.8585 146.3 76.1211 144.944 77.1124C143.587 78.1037 141.718 78.5807 139.339 78.5433L127.628 78.2627C125.472 78.1879 123.762 78.3749 122.498 78.8238L121.662 77.3649C121.662 76.3175 121.764 75.4758 121.968 74.8398C122.173 74.2039 122.572 73.568 123.167 72.932L139.506 53.9659L130.249 54.6954C129.469 54.7328 128.781 54.9198 128.186 55.2565C127.591 55.5932 127.127 55.986 126.792 56.4349C126.346 57.0334 126.123 57.6507 126.123 58.2866C126.123 58.4362 126.16 58.6607 126.234 58.96C125.454 58.8851 124.877 58.7542 124.506 58.5672C123.502 58.1183 122.73 57.4636 122.191 56.6032C121.652 55.7428 121.383 54.9198 121.383 54.1343C121.383 52.5631 122.043 51.3006 123.362 50.3467C124.682 49.3928 126.68 48.9532 129.357 49.028L139.506 49.3647C141.811 49.4395 143.522 49.2712 144.637 48.8597L145.362 50.5431C145.362 51.5905 145.269 52.4322 145.083 53.0681C144.897 53.7041 144.488 54.3961 143.856 55.1443L128.8 72.9881L137.945 72.6514C138.912 72.614 139.72 72.3989 140.371 72.0062C141.021 71.6134 141.495 71.1364 141.793 70.5753C142.09 70.0516 142.239 69.5278 142.239 69.0041C142.239 68.6674 142.183 68.3682 142.072 68.1063C142.815 68.2185 143.391 68.3495 143.8 68.4991Z" fill="white"/>
<path id="Shape_3" fill-rule="evenodd" clip-rule="evenodd" d="M178.765 75.1767C178.765 74.4285 178.523 73.699 178.04 72.9883C177.854 73.2875 177.613 73.5026 177.315 73.6336C177.018 73.7645 176.739 73.83 176.479 73.83C175.215 73.83 174.583 72.8386 174.583 70.856V60.8118C174.583 56.5473 173.635 53.4517 171.739 51.5252C169.843 49.5986 166.85 48.6354 162.761 48.6354C159.192 48.6354 156.375 49.2339 154.312 50.431C152.249 51.6281 151.217 53.3301 151.217 55.5372C151.217 56.9962 151.691 58.2119 152.639 59.1846C153.587 60.1572 154.842 60.6435 156.403 60.6435C157.147 60.6435 157.844 60.5406 158.494 60.3349C159.145 60.1291 159.656 59.8205 160.028 59.409C159.285 59.0349 158.755 58.4738 158.439 57.7256C158.123 56.9775 157.965 56.1732 157.965 55.3128C157.965 53.8164 158.374 52.7222 159.192 52.0302C160.009 51.3381 161.069 50.9921 162.37 50.9921C164.303 50.9921 165.688 51.759 166.525 53.2927C167.361 54.8265 167.779 57.1832 167.779 60.3629V61.8219C164.768 61.8219 162.017 62.1772 159.526 62.888C156.738 63.6736 154.442 64.8332 152.639 66.367C150.836 67.9007 149.935 69.8647 149.935 72.2588C149.935 74.3163 150.594 75.9248 151.914 77.0845C153.234 78.2442 154.972 78.824 157.128 78.824C159.619 78.824 161.813 78.1226 163.709 76.7198C165.605 75.3169 167.092 73.4372 168.17 71.0804C168.281 73.8113 168.82 75.7846 169.787 77.0003C170.754 78.2161 172.129 78.824 173.914 78.824C175.363 78.824 176.534 78.478 177.427 77.7859C178.319 77.0938 178.765 76.2241 178.765 75.1767ZM163.707 73.0437C162.48 73.9789 161.29 74.4466 160.138 74.4466C159.134 74.4466 158.391 74.0912 157.907 73.3804C157.424 72.6697 157.182 71.7718 157.182 70.687C157.182 69.4899 157.517 68.4238 158.186 67.4886C158.855 66.5534 159.766 65.8052 160.919 65.2441C162.666 64.3837 165.027 63.9909 168.001 64.0657C168.001 65.9361 167.592 67.6663 166.774 69.2561C165.956 70.846 164.934 72.1085 163.707 73.0437Z" fill="white"/>
<path id="Path_3" d="M206.815 75.345C206.815 80.8815 205.561 84.8748 203.051 87.3251C200.542 89.7753 197.094 91.0004 192.707 91.0004C189.695 91.0004 187.223 90.5422 185.29 89.6257C183.357 88.7092 182.39 87.1848 182.39 85.0525C182.39 83.8928 182.818 82.9389 183.673 82.1907C184.528 81.4426 185.643 81.0685 187.019 81.0685C188.469 81.0685 189.472 81.4426 190.03 82.1907C189.547 82.5274 189.175 82.9576 188.915 83.4813C188.655 84.0051 188.524 84.5101 188.524 84.9964C188.524 86.156 188.915 87.0819 189.695 87.774C190.476 88.466 191.517 88.812 192.818 88.812C195.383 88.812 197.326 87.7085 198.646 85.5014C199.966 83.2943 200.625 80.1894 200.625 76.1867C200.625 75.1393 200.756 73.6429 201.016 71.6977C199.417 76.3737 196.294 78.7118 191.647 78.7118C188.747 78.7118 186.591 77.8233 185.179 76.0464C183.766 74.2695 183.041 71.3423 183.004 67.2648V57.0523C183.004 54.2466 182.688 51.9273 182.056 50.0943C183.171 49.1217 184.435 48.6354 185.848 48.6354C186.963 48.6354 187.874 48.9533 188.58 49.5893C189.287 50.2252 189.64 51.0856 189.64 52.1705V66.2548C189.64 69.4719 189.937 71.8099 190.532 73.2688C191.127 74.7278 192.223 75.4572 193.822 75.4572C195.718 75.4572 197.261 74.363 198.451 72.1746C199.64 69.9862 200.235 66.7785 200.235 62.5513C200.235 58.3616 200.179 55.5653 200.068 54.1625C199.956 52.7597 199.659 51.4036 199.176 50.0943C200.254 49.1217 201.518 48.6354 202.968 48.6354C204.046 48.6354 204.947 48.9814 205.672 49.6735C206.397 50.3655 206.76 51.2914 206.76 52.451L206.815 75.345Z" fill="white"/>
<path id="Path_4" d="M254.996 70.6315C254.996 73.4746 255.331 75.7752 256 77.5334C254.848 78.5434 253.584 79.0484 252.208 79.0484C251.093 79.0484 250.182 78.7305 249.476 78.0945C248.769 77.4586 248.416 76.5982 248.416 75.5133L248.36 61.0363C248.36 58.0062 248.1 55.7149 247.58 54.1625C247.059 52.61 246 51.8338 244.401 51.8338C243.36 51.8338 242.375 52.3108 241.445 53.2647C240.516 54.2186 239.754 55.6588 239.159 57.5853C238.564 59.5119 238.248 61.8593 238.211 64.6275V70.6315C238.211 73.4746 238.546 75.7752 239.215 77.5334C238.062 78.5434 236.817 79.0484 235.479 79.0484C234.438 79.0484 233.564 78.7305 232.858 78.0945C232.151 77.4586 231.798 76.5982 231.798 75.5133V61.0363C231.798 57.894 231.491 55.5746 230.878 54.0783C230.265 52.582 229.159 51.8338 227.56 51.8338C225.85 51.8338 224.437 52.9561 223.322 55.2006C222.207 57.4451 221.649 60.7557 221.649 65.1325C221.649 69.3222 221.705 72.1185 221.816 73.5213C221.928 74.9242 222.244 76.2802 222.764 77.5895C222.244 78.001 221.705 78.347 221.147 78.6276C220.589 78.9082 219.864 79.0484 218.972 79.0484C217.857 79.0484 216.946 78.7024 216.24 78.0104C215.533 77.3183 215.18 76.3924 215.18 75.2328L215.124 56.6595C215.124 54.6768 214.548 53.6855 213.396 53.6855C213.098 53.6855 212.801 53.7603 212.503 53.91C212.206 54.0596 211.983 54.2841 211.834 54.5833C211.388 53.9474 211.165 53.2179 211.165 52.3949C211.165 51.2727 211.546 50.3749 212.308 49.7015C213.07 49.0282 214.102 48.6915 215.403 48.6915C217.076 48.6915 218.387 49.262 219.335 50.4029C220.283 51.5439 220.794 53.2553 220.868 55.5372C221.575 53.3675 222.671 51.6748 224.158 50.459C225.645 49.2433 227.504 48.6354 229.735 48.6354C231.965 48.6354 233.722 49.1872 235.005 50.2907C236.287 51.3942 237.189 53.0683 237.709 55.3128C238.416 53.2179 239.522 51.5813 241.027 50.4029C242.533 49.2246 244.364 48.6354 246.52 48.6354C252.171 48.6354 254.996 52.4323 254.996 60.0262V70.6315Z" fill="white"/>
</g>
<ellipse id="Oval" cx="220.401" cy="36.178" rx="5.13625" ry="5.16827" fill="white"/>
</g>
<defs>
<clipPath id="clip0_1_1149">
<rect width="64.7838" height="56.4827" fill="white" transform="translate(0 32.425)"/>
</clipPath>
</defs>
</svg>
