<svg width="24" height="24" viewBox="0 0 24 24" fill="none" xmlns="http://www.w3.org/2000/svg">
<g opacity="0.5">
<path fill-rule="evenodd" clip-rule="evenodd" d="M8.67188 11.6998C9.44364 13.2936 10.7324 14.579 12.3281 15.3467C12.5676 15.4601 12.8491 15.4387 13.0688 15.2904L15.4125 13.7248C15.623 13.5821 15.892 13.5573 16.125 13.6592L20.5125 15.5436C20.8207 15.6719 21.005 15.9905 20.9625 16.3217C20.6748 18.5671 18.7638 20.2493 16.5 20.2498C9.45837 20.2498 3.75 14.5415 3.75 7.49982C3.75051 5.23602 5.43268 3.32501 7.67812 3.03732C8.00928 2.99478 8.32796 3.17908 8.45625 3.48732L10.3406 7.8842C10.4401 8.11331 10.419 8.37694 10.2844 8.58732L8.71875 10.9686C8.57701 11.1876 8.55926 11.4645 8.67188 11.6998Z" stroke="white" stroke-width="1.5" stroke-linecap="round" stroke-linejoin="round"/>
</g>
</svg>
