<svg width="50" height="50" viewBox="0 0 50 50" fill="none" xmlns="http://www.w3.org/2000/svg">
<g clip-path="url(#clip0_0_3485)">
<circle cx="25" cy="25" r="25" stroke="#00B57D" stroke-width="0.5" stroke-dasharray="4"/>
<circle cx="25" cy="25" r="20" fill="#00AAB5"/>
<path d="M20.7739 30.2397C19.8577 30.2362 19.0693 30.0107 18.4088 29.5632C17.7519 29.1158 17.2458 28.4677 16.8907 27.619C16.5392 26.7702 16.3651 25.7493 16.3687 24.5561C16.3687 23.3665 16.5445 22.3526 16.896 21.5146C17.2512 20.6765 17.7572 20.0391 18.4142 19.6023C19.0747 19.1619 19.8612 18.9418 20.7739 18.9418C21.6865 18.9418 22.4713 19.1619 23.1283 19.6023C23.7888 20.0426 24.2966 20.6818 24.6517 21.5199C25.0068 22.3544 25.1826 23.3665 25.1791 24.5561C25.1791 25.7528 25.0015 26.7756 24.6464 27.6243C24.2948 28.473 23.7906 29.1211 23.1336 29.5685C22.4767 30.016 21.6901 30.2397 20.7739 30.2397ZM20.7739 28.3274C21.3989 28.3274 21.8978 28.0131 22.2707 27.3846C22.6436 26.756 22.8282 25.8132 22.8247 24.5561C22.8247 23.7287 22.7394 23.0398 22.569 22.4893C22.4021 21.9389 22.1642 21.5252 21.8552 21.2482C21.5498 20.9712 21.1894 20.8327 20.7739 20.8327C20.1524 20.8327 19.6553 21.1435 19.2824 21.7649C18.9095 22.3864 18.7213 23.3168 18.7178 24.5561C18.7178 25.3942 18.8012 26.0938 18.9681 26.6548C19.1386 27.2124 19.3783 27.6314 19.6872 27.9119C19.9962 28.1889 20.3584 28.3274 20.7739 28.3274ZM25.8237 30V28.3381L29.7069 24.7425C30.0371 24.4229 30.3141 24.1353 30.5378 23.8796C30.7651 23.6239 30.9373 23.3736 31.0545 23.1286C31.1717 22.88 31.2303 22.6119 31.2303 22.3242C31.2303 22.0046 31.1575 21.7294 31.0119 21.4986C30.8663 21.2642 30.6674 21.0849 30.4153 20.9606C30.1632 20.8327 29.8773 20.7688 29.5577 20.7688C29.2239 20.7688 28.9327 20.8363 28.6841 20.9712C28.4355 21.1062 28.2438 21.2997 28.1088 21.5518C27.9739 21.804 27.9064 22.104 27.9064 22.4521H25.7172C25.7172 21.7383 25.8787 21.1186 26.2019 20.593C26.525 20.0675 26.9778 19.6609 27.5602 19.3732C28.1426 19.0856 28.8137 18.9418 29.5737 18.9418C30.3549 18.9418 31.035 19.0803 31.6138 19.3572C32.1962 19.6307 32.649 20.0107 32.9721 20.4972C33.2953 20.9837 33.4569 21.5412 33.4569 22.1697C33.4569 22.5817 33.3752 22.9883 33.2118 23.3896C33.052 23.7908 32.7662 24.2365 32.3542 24.7266C31.9423 25.2131 31.3617 25.7972 30.6124 26.479L29.0197 28.0398V28.1143H33.6007V30H25.8237Z" fill="white"/>
</g>
<defs>
<clipPath id="clip0_0_3485">
<rect width="50" height="50" fill="white"/>
</clipPath>
</defs>
</svg>
