<svg width="50" height="50" viewBox="0 0 50 50" fill="none" xmlns="http://www.w3.org/2000/svg">
<g clip-path="url(#clip0_0_4514)">
<circle cx="25" cy="25" r="25" stroke="#B0B500" stroke-width="0.5" stroke-dasharray="4"/>
<circle cx="25" cy="25" r="20" fill="#B0B500"/>
<path d="M21.8286 30.2397C20.9124 30.2362 20.124 30.0107 19.4635 29.5632C18.8066 29.1158 18.3005 28.4677 17.9454 27.619C17.5938 26.7702 17.4198 25.7493 17.4234 24.5561C17.4234 23.3665 17.5992 22.3526 17.9507 21.5146C18.3058 20.6765 18.8119 20.0391 19.4688 19.6023C20.1294 19.1619 20.9159 18.9418 21.8286 18.9418C22.7412 18.9418 23.526 19.1619 24.183 19.6023C24.8435 20.0426 25.3513 20.6818 25.7064 21.5199C26.0615 22.3544 26.2373 23.3665 26.2338 24.5561C26.2338 25.7528 26.0562 26.7756 25.7011 27.6243C25.3495 28.473 24.8453 29.1211 24.1883 29.5685C23.5313 30.016 22.7448 30.2397 21.8286 30.2397ZM21.8286 28.3274C22.4536 28.3274 22.9525 28.0131 23.3254 27.3846C23.6982 26.756 23.8829 25.8132 23.8794 24.5561C23.8794 23.7287 23.7941 23.0398 23.6237 22.4893C23.4568 21.9389 23.2188 21.5252 22.9099 21.2482C22.6045 20.9712 22.2441 20.8327 21.8286 20.8327C21.2071 20.8327 20.71 21.1435 20.3371 21.7649C19.9642 22.3864 19.776 23.3168 19.7725 24.5561C19.7725 25.3942 19.8559 26.0938 20.0228 26.6548C20.1933 27.2124 20.433 27.6314 20.7419 27.9119C21.0509 28.1889 21.4131 28.3274 21.8286 28.3274ZM31.6245 19.0909V30H29.318V21.2802H29.2541L26.7559 22.8462V20.8008L29.4565 19.0909H31.6245Z" fill="white"/>
</g>
<defs>
<clipPath id="clip0_0_4514">
<rect width="50" height="50" fill="white"/>
</clipPath>
</defs>
</svg>
