<svg width="30" height="24" viewBox="0 0 30 24" fill="none" xmlns="http://www.w3.org/2000/svg">
<path d="M9.43475 23.9998C20.7561 23.9998 26.9472 14.7671 26.9472 6.76125C26.9472 6.49903 26.9417 6.23789 26.9298 5.97819C28.1314 5.1229 29.1759 4.05559 30 2.84074C28.8972 3.32347 27.7102 3.64799 26.4654 3.79482C27.7361 3.04445 28.7117 1.85795 29.1719 0.443538C27.9826 1.13756 26.6656 1.64178 25.2635 1.91411C24.1404 0.736461 22.5411 0 20.7705 0C17.3717 0 14.6152 2.71324 14.6152 6.05784C14.6152 6.53352 14.6693 6.99584 14.7748 7.43938C9.65931 7.186 5.12301 4.77526 2.08762 1.10921C1.55925 2.00441 1.25433 3.04463 1.25433 4.15456C1.25433 6.25631 2.34098 8.11227 3.99325 9.19764C2.98347 9.16712 2.03497 8.89424 1.20572 8.44005C1.2048 8.46551 1.2048 8.49025 1.2048 8.51734C1.2048 11.4516 3.32636 13.9016 6.14306 14.4567C5.6257 14.5952 5.08137 14.6698 4.51997 14.6698C4.12406 14.6698 3.73805 14.6315 3.36305 14.5605C4.14662 16.9679 6.41899 18.7196 9.11296 18.7687C7.00626 20.3941 4.35247 21.3622 1.46825 21.3622C0.972169 21.3622 0.481773 21.3343 0 21.2783C2.72405 22.997 5.95868 24 9.43494 24" fill="#1DA1F2"/>
</svg>
