<svg width="36" height="20" viewBox="0 0 36 20" fill="none" xmlns="http://www.w3.org/2000/svg">
<path d="M35.6791 17.8387C35.5824 17.681 34.9838 16.4146 32.1036 13.8118C29.0884 11.0863 29.4934 11.5289 33.1252 6.81617C35.3371 3.94605 36.2214 2.19331 35.9446 1.44401C35.6814 0.729765 34.0545 0.918185 34.0545 0.918185L28.6451 0.948858C28.6451 0.948858 28.2446 0.896276 27.9453 1.06936C27.655 1.24025 27.4683 1.63462 27.4683 1.63462C27.4683 1.63462 26.611 3.85622 25.4679 5.7448C23.0579 9.73011 22.0926 9.94044 21.6988 9.69286C20.783 9.11665 21.0125 7.37486 21.0125 6.13917C21.0125 2.27656 21.6133 0.666228 19.8402 0.249952C19.2507 0.111923 18.8186 0.019904 17.3133 0.00456746C15.3826 -0.0151509 13.7468 0.0111403 12.8219 0.451517C12.2054 0.745102 11.7306 1.40019 12.0209 1.43744C12.3787 1.48345 13.1887 1.64996 13.6185 2.2196C14.1743 2.95356 14.154 4.60552 14.154 4.60552C14.154 4.60552 14.4736 9.1517 13.4092 9.71696C12.6779 10.1048 11.6766 9.31383 9.5277 5.6966C8.42737 3.84527 7.59481 1.79675 7.59481 1.79675C7.59481 1.79675 7.43505 1.41553 7.14928 1.21177C6.80275 0.964195 6.31672 0.885321 6.31672 0.885321L1.17284 0.915995C1.17284 0.915995 0.401032 0.937904 0.117511 1.26435C-0.134508 1.55575 0.0972595 2.15606 0.0972595 2.15606C0.0972595 2.15606 4.12505 11.3295 8.68389 15.9545C12.8669 20.194 17.6148 19.9157 17.6148 19.9157H19.766C19.766 19.9157 20.4163 19.8456 20.747 19.4973C21.053 19.1774 21.0418 18.5771 21.0418 18.5771C21.0418 18.5771 20.999 15.7661 22.3401 15.352C23.661 14.9445 25.3576 18.0688 27.1555 19.2716C28.5146 20.1808 29.5474 19.9815 29.5474 19.9815L34.356 19.9157C34.356 19.9157 36.8717 19.7646 35.6791 17.8387Z" fill="#4782C6"/>
</svg>
